HIERARCHY
ROOT hip
{
	OFFSET 0.000000 0.000000 0.000000 
	CHANNELS 6 Xposition Yposition Zposition Xrotation Zrotation Yrotation
	JOINT abdomen
	{
		OFFSET 0.000000 3.402643 0.000000 
		CHANNELS 3 Xrotation Zrotation Yrotation
		JOINT chest
		{
			OFFSET 0.000000 8.438565 -0.680529 
			CHANNELS 3 Xrotation Zrotation Yrotation
			JOINT neck
			{
				OFFSET 0.000000 10.207942 -0.272212 
				CHANNELS 3 Xrotation Zrotation Yrotation
				JOINT head
				{
					OFFSET 0.000000 3.130431 0.000000 
					CHANNELS 3 Xrotation Zrotation Yrotation
					End Site
					{
						OFFSET 0.000000 3.130435 0.000000 
					}
				}
			}
			JOINT lCollar
			{
				OFFSET 3.470700 6.669187 -0.816635 
				CHANNELS 3 Yrotation Zrotation Xrotation
				JOINT lShldr
				{
					OFFSET 3.198488 0.000000 0.000000 
					CHANNELS 3 Zrotation Yrotation Xrotation
					JOINT lForeArm
					{
						OFFSET 10.139888 0.000000 0.000000 
						CHANNELS 3 Yrotation Zrotation Xrotation
						JOINT lHand
						{
							OFFSET 8.370511 0.000000 0.000000 
							CHANNELS 3 Zrotation Yrotation Xrotation
							End Site
							{
								OFFSET 4.083176 0.000000 0.000000 
							}
						}
					}
				}
			}
			JOINT rCollar
			{
				OFFSET -3.470700 6.669187 -0.816635 
				CHANNELS 3 Yrotation Zrotation Xrotation
				JOINT rShldr
				{
					OFFSET -3.198488 0.000000 0.000000 
					CHANNELS 3 Zrotation Yrotation Xrotation
					JOINT rForeArm
					{
						OFFSET -10.139888 0.000000 0.000000 
						CHANNELS 3 Yrotation Zrotation Xrotation
						JOINT rHand
						{
							OFFSET -8.370511 0.000000 0.000000 
							CHANNELS 3 Zrotation Yrotation Xrotation
							End Site
							{
								OFFSET -4.083176 0.000000 0.000000 
							}
						}
					}
				}
			}
		}
	}
	JOINT lThigh
	{
		OFFSET 5.308129 -1.633274 1.361059 
		CHANNELS 3 Xrotation Zrotation Yrotation
		JOINT lShin
		{
			OFFSET -2.041588 -20.007561 0.000000 
			CHANNELS 3 Xrotation Zrotation Yrotation
			JOINT lFoot
			{
				OFFSET 0.000000 -19.190928 -1.224953 
				CHANNELS 3 Xrotation Yrotation Zrotation
				End Site
				{
					OFFSET 0.000000 -2.449906 4.627600 
				}
			}
		}
	}
	JOINT rThigh
	{
		OFFSET -5.308129 -1.633274 1.361059 
		CHANNELS 3 Xrotation Zrotation Yrotation
		JOINT rShin
		{
			OFFSET 2.041588 -20.007561 0.000000 
			CHANNELS 3 Xrotation Zrotation Yrotation
			JOINT rFoot
			{
				OFFSET 0.000000 -19.190928 -1.224953 
				CHANNELS 3 Xrotation Yrotation Zrotation
				End Site
				{
					OFFSET 0.000000 -2.449906 4.627600 
				}
			}
		}
	}
}
MOTION
Frames: 16
Frame Time: 0.033333
1.732592 52.254337 0.840676 -5.283203 14.501953 -113.444817 22.953594 -12.831606 -5.068124 -24.589844 8.251954 1.484375 51.063168 8.107644 2.471410 -55.468750 -1.035156 -16.259766 2.000000 -2.000000 0.000000 -88.154297 25.214844 -23.443104 -63.939819 -1.403863 -2.486900 34.705475 50.796135 11.445720 -2.000000 2.000000 0.000000 85.761719 -39.013672 -8.053021 78.479172 0.639202 -2.795617 -34.625759 -57.005695 34.879890 -13.842638 8.951351 4.383866 15.949665 -5.050099 -1.563938 -11.034431 3.033996 -3.066608 -13.473976 -4.939729 -14.769439 18.072151 4.891299 1.698915 -9.609809 -7.709462 4.435382 
1.544528 52.262211 0.903569 -5.273437 14.160155 -113.405815 22.717813 -12.590158 -4.764338 -24.423830 8.427734 1.533203 51.063168 8.107644 2.471410 -53.769535 -1.708984 -16.796879 2.000000 -2.000000 0.000000 -88.203125 24.707033 -22.661932 -63.768471 -1.373025 -2.292891 34.563354 50.634674 11.395213 -2.000000 2.000000 0.000000 85.869141 -39.365234 -9.531250 78.303383 0.648951 -2.795053 -35.582726 -57.245686 35.661373 -13.190022 8.610709 4.485556 16.137112 -5.067535 -1.639904 -11.027442 3.352578 -3.071700 -12.957335 -5.330849 -14.216314 18.243280 4.958585 1.216995 -9.321252 -7.646549 4.697818 
1.332741 52.254337 0.941687 -5.244140 13.476563 -113.523109 22.681244 -12.274639 -4.628841 -24.423830 8.427734 1.708984 51.063168 8.107644 2.471410 -52.236336 -2.363281 -17.187502 2.000000 -2.000000 0.000000 -88.574219 24.013670 -21.523438 -63.402596 -1.061508 -2.487259 34.281078 50.390125 10.917441 -2.000000 2.000000 0.000000 86.689453 -39.912109 -10.996094 77.964455 0.830652 -2.892104 -36.157864 -57.208069 36.257820 -12.290987 8.414834 4.851544 15.774626 -5.050440 -1.568823 -10.849859 3.251817 -2.951263 -12.420058 -5.701804 -13.881014 18.426241 4.950785 1.269338 -9.416325 -7.844454 4.586948 
1.134310 52.270096 0.947518 -5.234375 12.949220 -113.650154 22.492094 -12.114011 -4.555894 -24.238281 8.593751 1.748047 51.063168 8.107644 2.471410 -51.230473 -2.988281 -17.392580 2.000000 -2.000000 0.000000 -89.101563 23.632814 -20.904287 -62.876419 -1.220328 -2.526911 34.877895 49.970852 11.124040 -2.000000 2.000000 0.000000 87.900391 -39.707031 -12.509765 77.424187 0.677634 -2.783616 -36.027878 -57.447983 35.706905 -11.484728 8.096089 4.777615 15.594464 -5.098875 -1.578560 -10.601349 3.639337 -3.113344 -11.528095 -5.874424 -13.716701 18.426241 4.950784 1.269338 -9.422416 -8.090535 4.858871 
0.919011 52.262211 0.927858 -5.224609 12.246094 -113.768204 22.443121 -11.875907 -4.243197 -24.052734 8.759767 1.796875 51.063168 8.107644 2.471410 -50.195313 -3.427734 -17.275393 2.000000 -2.000000 0.000000 -89.726563 22.890625 -20.556641 -62.531925 -1.419961 -2.427293 35.636894 49.166443 11.631863 -2.000000 2.000000 0.000000 88.408203 -39.169918 -13.570620 76.896553 0.706317 -2.772178 -36.418575 -57.785496 36.283791 -10.447659 7.664685 5.183367 15.774336 -5.050377 -1.578549 -10.477180 3.612555 -2.934496 -10.953045 -6.265879 -13.689969 18.600924 4.904919 1.549674 -9.319419 -8.106566 4.586197 
0.719903 52.254337 0.888432 -5.029297 11.357421 -113.650421 22.241453 -11.551145 -4.104626 -23.867189 8.935547 1.835937 51.063168 8.107644 2.471410 -49.511719 -3.828125 -16.972656 2.000000 -2.000000 0.000000 -90.263672 22.539063 -19.960938 -61.992298 -1.297301 -2.336643 35.827435 49.095028 11.462276 -2.000000 2.000000 0.000000 88.203125 -38.642582 -13.886719 76.368660 0.714935 -2.752123 -35.921406 -58.060753 36.090748 -9.584156 7.504486 5.203640 15.969773 -5.118673 -1.564159 -10.287329 3.430127 -2.854099 -10.026755 -6.618398 -13.548788 18.949503 4.881296 1.594640 -9.357869 -8.027471 4.686434 
0.525818 52.262211 0.826478 -5.019531 10.673829 -113.777489 22.052191 -11.377916 -4.037515 -23.867189 8.935547 1.835937 51.063168 8.107644 2.471410 -48.671875 -4.248047 -16.338615 2.000000 -2.000000 0.000000 -90.976563 22.138672 -19.566631 -61.291534 -1.126352 -2.424816 36.207401 48.746861 11.819639 -2.000000 2.000000 0.000000 88.515625 -37.714844 -14.609375 75.853630 0.925321 -2.837737 -35.658237 -58.207718 35.979916 -8.725420 7.143478 5.479128 16.114195 -5.008069 -1.630988 -10.075755 3.415498 -2.963248 -9.156314 -6.831384 -12.895880 18.962650 4.931182 1.135860 -9.345702 -8.191537 4.804373 
0.282432 52.270096 0.722147 -5.000000 9.804688 -113.876953 21.878735 -11.149943 -4.114821 -23.691406 8.925781 1.866750 51.063168 8.107644 2.471410 -47.988281 -4.472655 -15.703887 2.000000 -2.000000 0.000000 -91.689453 21.962893 -20.465097 -60.420311 -1.483669 -2.345360 36.111752 48.674938 12.006040 -2.000000 2.000000 0.000000 88.515625 -36.953125 -14.755857 75.325211 0.903562 -2.799883 -35.458981 -58.552849 35.950626 -7.672085 6.958845 5.678758 16.653347 -5.089770 -1.646988 -10.472953 3.359899 -2.927742 -8.257453 -7.006051 -12.558655 19.498430 4.930754 1.151135 -9.227898 -8.391719 4.661844 
0.008896 52.238583 0.581006 -4.814453 9.101563 -113.963295 21.537619 -10.896876 -4.203641 -23.691406 8.925781 1.866750 51.063168 8.107644 2.471410 -47.109375 -4.541015 -14.707035 2.000000 -2.000000 0.000000 -92.646484 22.187500 -21.148655 -59.886074 -1.352850 -2.450754 36.463360 49.215855 12.996433 -2.000000 2.000000 0.000000 88.857422 -36.464844 -15.107421 74.971321 0.771735 -2.719504 -35.685062 -58.747131 36.623623 -6.821891 6.772212 5.710083 16.653921 -5.089938 -1.627545 -10.247913 3.959370 -3.149617 -7.272134 -7.387294 -12.420962 19.661346 4.923799 1.163844 -9.722777 -8.202828 4.679111 
-0.300677 52.207073 0.426835 -4.804687 8.232422 -114.061615 21.197935 -10.659753 -4.277691 -23.505861 8.925781 1.718750 51.063168 8.107644 2.471410 -46.220707 -4.609375 -13.554688 2.000000 -2.000000 0.000000 -93.613281 22.373049 -22.753904 -58.833569 -1.209659 -2.175301 36.236221 49.921593 13.472362 -2.000000 2.000000 0.000000 88.837891 -35.722660 -15.132654 74.443680 0.800417 -2.708066 -35.355061 -58.921062 36.611965 -5.572741 6.596489 5.950504 16.659973 -5.030423 -1.658851 -9.931271 3.613518 -3.216710 -6.463985 -7.595860 -12.649782 20.015787 4.823226 1.517596 -9.714757 -8.670722 4.606010 
-0.607883 52.183437 0.252565 -4.794922 7.519532 -114.178406 20.681803 -10.410071 -4.357545 -23.505861 8.925781 1.718750 51.063168 8.107644 2.471410 -45.351566 -4.677734 -12.558595 2.000000 -2.000000 0.000000 -94.716797 22.695313 -24.673964 -57.953842 -1.227452 -2.144928 35.722919 50.930080 13.831152 -2.000000 2.000000 0.000000 88.603516 -35.214844 -14.595474 73.918358 0.970677 -2.776445 -34.862484 -59.167538 36.330772 -4.517491 6.389472 6.326198 17.008577 -5.061525 -1.672707 -10.121515 3.562531 -3.226126 -5.348618 -7.737219 -12.360795 20.188423 4.832202 1.718254 -9.918925 -8.308236 4.151292 
-0.930449 52.159809 0.076270 -4.609375 6.806641 -114.296875 20.190176 -10.239108 -4.646101 -23.505861 8.925781 1.542969 51.063168 8.107644 2.471410 -44.648438 -4.726562 -11.572266 2.000000 -2.000000 0.000000 -95.742188 22.949219 -26.671329 -56.898056 -1.254427 -2.104239 35.443501 51.771065 14.584853 -2.000000 2.000000 0.000000 88.984375 -34.843754 -14.775392 73.397644 0.837152 -2.666685 -34.830978 -59.460094 36.707081 -3.473721 6.224063 6.199343 16.832724 -5.071114 -1.649543 -9.935038 3.727675 -3.334055 -4.404089 -7.820863 -12.042961 20.369497 4.813891 1.544950 -10.069605 -8.740325 4.516276 
-1.219362 52.104656 -0.089299 -4.599609 6.123047 -114.403641 19.674532 -9.992836 -4.716950 -23.330078 8.925781 1.572266 51.063168 8.107644 2.471410 -43.945313 -4.794921 -10.566407 2.000000 -2.000000 0.000000 -96.601563 23.291016 -28.691404 -55.668087 -1.470611 -2.120963 35.473148 52.613403 15.527749 -2.000000 2.000000 0.000000 88.974609 -34.296875 -14.589844 73.046059 0.856650 -2.665555 -34.345871 -59.462296 36.517395 -2.431220 5.993956 6.400735 16.996090 -5.070556 -1.663350 -9.939398 3.800930 -3.504294 -3.435498 -7.931115 -11.746052 20.549910 4.881306 1.425239 -10.531348 -8.520557 4.345393 
-1.494318 52.065262 -0.247021 -4.599609 5.605469 -114.706078 19.367579 -9.820800 -5.036433 -23.330078 8.925781 1.396485 51.063168 8.107644 2.471410 -43.759766 -4.628906 -9.688290 2.000000 -2.000000 0.000000 -97.978516 23.847654 -30.908205 -55.151093 -1.608803 -2.142237 35.460220 53.747787 16.456415 -2.000000 2.000000 0.000000 88.701172 -33.603516 -14.067905 72.518440 0.865833 -2.655243 -33.849483 -59.679665 36.410835 -1.512174 5.948697 6.786770 17.191496 -5.061056 -1.707606 -9.988632 3.808803 -3.715574 -2.577597 -8.121452 -11.592067 20.547949 4.887076 1.445632 -10.759151 -8.570003 4.491603 
-1.718706 52.025875 -0.384854 -4.423828 5.244141 -115.019524 19.193617 -9.571099 -5.116570 -23.330078 8.925781 1.396485 51.063168 8.107644 2.471410 -43.906258 -4.267577 -8.925781 2.000000 -2.000000 0.000000 -98.759766 23.496096 -32.158203 -54.259312 -1.377185 -2.028627 34.455311 54.729534 16.158159 -2.000000 2.000000 0.000000 88.935547 -33.212891 -14.404297 72.166595 0.875017 -2.644933 -33.767365 -59.755100 36.706970 -0.966686 5.921782 7.140557 17.534334 -5.002606 -1.699058 -9.815227 3.686436 -3.788568 -1.933584 -8.162285 -11.824530 20.541143 4.803320 1.898068 -11.159364 -7.814394 3.679129 
-1.831970 51.994366 -0.476624 -4.238281 4.902344 -115.682762 19.225267 -9.482253 -5.269252 -23.330078 9.101563 1.416016 51.063168 8.107644 2.471410 -44.755859 -3.847656 -8.300782 2.000000 -2.000000 0.000000 -99.365234 23.662109 -33.583981 -53.392891 -1.833032 -2.129157 34.902317 55.391125 17.346062 -2.000000 2.000000 0.000000 88.818359 -32.363285 -14.306640 71.638695 0.893384 -2.624311 -34.036343 -59.882057 37.134621 -0.781272 5.980016 7.149928 18.100376 -5.050170 -1.743076 -10.197488 4.113836 -4.309088 -1.542668 -8.116258 -11.863746 20.550852 4.803329 1.908595 -11.109350 -7.304663 3.587229 
